<svg width="512" height="512" viewBox="0 0 512 512" fill="none" xmlns="http://www.w3.org/2000/svg">
<path d="M250.788 63C212.015 96.2922 134.47 174.862 134.47 225.3C134.47 275.737 214.12 354.052 249.403 389.336" stroke="white" stroke-width="30" stroke-linecap="round"/>
<path d="M250.49 63C289.263 96.2922 366.182 174.862 366.182 225.3C366.182 275.737 287.049 353.794 251.046 389.797" stroke="white" stroke-width="30" stroke-linecap="round"/>
<path d="M107.425 256.26L116.516 244.329L92.6531 226.148L83.5625 238.079L95.494 247.17L107.425 256.26ZM114.496 370.934L103.014 380.585H103.014L114.496 370.934ZM193.599 448.879L182.973 459.466L193.705 470.239L204.33 459.36L193.599 448.879ZM265.211 397.027C271 391.101 270.888 381.604 264.961 375.816C259.035 370.027 249.538 370.139 243.75 376.066L254.48 386.547L265.211 397.027ZM95.494 247.17L83.5625 238.079C64.103 263.62 55.4705 324.024 103.014 380.585L114.496 370.934L125.978 361.282C86.5101 314.327 97.3439 269.492 107.425 256.26L95.494 247.17ZM114.496 370.934L103.014 380.585C126.993 409.113 145.865 427.711 159.61 439.989C166.481 446.126 172.009 450.629 176.136 453.926C178.281 455.638 179.772 456.808 181.084 457.871C181.704 458.373 182.164 458.755 182.511 459.054C182.872 459.365 182.992 459.486 182.973 459.466L193.599 448.879L204.226 438.293C195.822 429.857 173.03 417.258 125.978 361.282L114.496 370.934ZM193.599 448.879L204.33 459.36L265.211 397.027L254.48 386.547L243.75 376.066L182.869 438.398L193.599 448.879Z" fill="white"/>
<path d="M241.552 75.0464C234.899 70.1102 233.507 60.7152 238.444 54.0622C243.38 47.4091 252.775 46.0174 259.428 50.9536L250.49 63L241.552 75.0464ZM390.529 374.897L379.934 364.279V364.279L390.529 374.897ZM311.393 449.802L321.988 460.421L311.381 471.004L300.786 460.409L311.393 449.802ZM267.672 427.295L257.066 416.689L278.279 395.475L288.886 406.082L278.279 416.689L267.672 427.295ZM250.49 63L259.428 50.9536C270.993 59.5344 340.232 106.48 389.849 167.883C414.649 198.573 435.766 234.304 441.501 271.975C447.392 310.67 436.789 349.929 401.124 385.515L390.529 374.897L379.934 364.279C408.974 335.303 416.267 305.554 411.843 276.49C407.262 246.401 389.853 215.62 366.515 186.738C319.855 128.995 254.369 84.5557 241.552 75.0464L250.49 63ZM390.529 374.897L401.124 385.515C375.179 411.403 356.495 429.026 343.63 440.836C330.139 453.221 324.259 458.155 321.988 460.421L311.393 449.802L300.798 439.184C303.528 436.46 311.416 429.685 323.342 418.736C335.894 407.214 354.277 389.879 379.934 364.279L390.529 374.897ZM311.393 449.802L300.786 460.409L267.672 427.295L278.279 416.689L288.886 406.082L321.999 439.196L311.393 449.802Z" fill="white"/>
</svg>
